<?xml version="1.0" encoding="UTF-8"?>
<svg version="1.1" xmlns="http://www.w3.org/2000/svg" width="391" height="255">
<path d="M0 0 C3.21571894 1.37587328 4.93199968 2.82410036 7.03125 5.60546875 C7.58820557 6.33386963 8.14516113 7.06227051 8.71899414 7.81274414 C9.30672607 8.59641357 9.89445801 9.38008301 10.5 10.1875 C11.75815718 11.83666835 13.01728671 13.4850953 14.27734375 15.1328125 C14.90495605 15.9568457 15.53256836 16.78087891 16.17919922 17.62988281 C18.75522763 20.98307185 21.40394408 24.27464993 24.0625 27.5625 C28.27447737 32.79019602 32.37925457 38.08972996 36.4375 43.4375 C41.20266641 49.71501155 46.10120011 55.86138518 51.1027832 61.95166016 C55.80156348 67.69691237 60.31312028 73.57552849 64.77539062 79.50585938 C65.28521484 80.18068359 65.79503906 80.85550781 66.3203125 81.55078125 C66.76648926 82.14544189 67.21266602 82.74010254 67.67236328 83.3527832 C68.97659341 85.05526828 68.97659341 85.05526828 70.66748047 86.52807617 C72 88 72 88 72 91 C66.06 90.67 60.12 90.34 54 90 C56.2275 92.8771875 56.2275 92.8771875 58.5 95.8125 C72 113.32775899 72 113.32775899 72 115 C25.14 115 -21.72 115 -70 115 C-66.19540168 109.29310251 -62.46419697 103.87170543 -58.1875 98.5625 C-54.78113614 94.4890827 -54.78113614 94.4890827 -52 90 C-57.94 90.33 -63.88 90.66 -70 91 C-69.06209374 87.24837495 -68.62341598 86.21013424 -66.26171875 83.453125 C-65.69509521 82.78144287 -65.12847168 82.10976074 -64.54467773 81.41772461 C-63.62537476 80.34470093 -63.62537476 80.34470093 -62.6875 79.25 C-57.93104968 73.5955338 -53.32075804 67.88626011 -48.9375 61.9375 C-44.42118064 55.82147851 -39.71629598 49.8999648 -34.87939453 44.03491211 C-30.30951287 38.46291181 -25.99399068 32.72125237 -21.78125 26.875 C-20.56669485 25.21544254 -19.28911053 23.60233243 -18 22 C-17.34 22 -16.68 22 -16 22 C-15.72671875 21.41355713 -15.4534375 20.82711426 -15.171875 20.22290039 C-14.03080769 18.05843834 -12.79268526 16.32644161 -11.25 14.43359375 C-10.7240625 13.78326172 -10.198125 13.13292969 -9.65625 12.46289062 C-9.1096875 11.79451172 -8.563125 11.12613281 -8 10.4375 C-6.91559607 9.10373431 -5.83222225 7.76913028 -4.75 6.43359375 C-4.27046875 5.84634521 -3.7909375 5.25909668 -3.296875 4.65405273 C-2.12383084 3.1579356 -1.05457233 1.58185849 0 0 Z M0 10 C-1.39537461 11.42906906 -1.39537461 11.42906906 -2.80078125 13.33984375 C-3.35918701 14.06461914 -3.91759277 14.78939453 -4.49291992 15.53613281 C-5.09338135 16.32858398 -5.69384277 17.12103516 -6.3125 17.9375 C-6.93552002 18.74928711 -7.55854004 19.56107422 -8.20043945 20.39746094 C-10.13975397 22.92702291 -12.07046074 25.46297664 -14 28 C-15.14277994 29.49643691 -16.28598844 30.99254669 -17.4296875 32.48828125 C-19.05709575 34.61685864 -20.68419132 36.7456628 -22.30932617 38.87597656 C-27.02899475 45.05754034 -31.82380386 51.17747542 -36.64404297 57.28076172 C-38.04823043 59.06115209 -39.44849751 60.84456173 -40.84765625 62.62890625 C-41.31888916 63.22977051 -41.79012207 63.83063477 -42.27563477 64.44970703 C-43.2045803 65.63422101 -44.13345593 66.81878982 -45.06225586 68.00341797 C-48.54528588 72.438666 -52.0764777 76.83342852 -55.63671875 81.20703125 C-57.10087652 82.75727264 -57.10087652 82.75727264 -57 84 C-50.39165331 84.88833465 -50.39165331 84.88833465 -44.28515625 82.8984375 C-42.69048339 81.02180799 -41.36183998 79.05292296 -40 77 C-38.86641082 75.51947606 -37.73192471 74.03957653 -36.5847168 72.56958008 C-35.27878706 70.89425092 -33.98783625 69.20820429 -32.69921875 67.51953125 C-25.67299032 58.33726754 -18.46693362 49.2933138 -11.21948242 40.28515625 C-7.85816524 36.10110032 -4.58398704 31.86221139 -1.40234375 27.5390625 C0 26 0 26 3 25 C3.24105469 25.71671875 3.48210937 26.4334375 3.73046875 27.171875 C5.18558758 30.41343202 6.9762712 32.57346946 9.3125 35.25 C13.49261336 40.12204208 17.44242446 45.12871454 21.3125 50.25 C26.25784743 56.77918031 31.30825706 63.20548895 36.54174805 69.50683594 C39.47963867 73.05437587 42.094944 76.64467658 44.625 80.5 C46.67216786 83.23128472 47.46163347 83.89937761 50.86328125 84.53515625 C53.64160111 84.55986812 56.25356123 84.40228127 59 84 C54.95576191 78.53481339 50.79367787 73.17015407 46.5859375 67.83056641 C40.96278335 60.6916217 35.3909631 53.51295804 29.81591797 46.33642578 C27.99442692 43.99282947 26.17131223 41.65050573 24.34765625 39.30859375 C18.970104 32.40226468 13.59533968 25.4938087 8.25 18.5625 C7.47140625 17.55316406 6.6928125 16.54382813 5.890625 15.50390625 C4.53677906 13.71089954 3.24625863 11.86938795 2 10 C1.34 10 0.68 10 0 10 Z M0 35 C-1.6020432 36.93611193 -1.6020432 36.93611193 -3.3125 39.5 C-6.82131475 44.45437002 -10.52184985 49.18420851 -14.375 53.875 C-20.06159932 60.81268406 -25.58023369 67.85176767 -31 75 C-31.96486328 76.26070312 -31.96486328 76.26070312 -32.94921875 77.546875 C-35.64021221 80.49354011 -35.64021221 80.49354011 -37 84 C-32.27353893 85.02040539 -27.62615109 85.66587875 -23 84 C-18.22273829 80.34324955 -14.90329234 75.09301661 -11.52392578 70.18603516 C-9.20423505 66.85849417 -6.68921966 63.69127308 -4.1875 60.5 C-2.7857341 58.67109223 -1.39263067 56.83588333 0 55 C3.98138478 56.32712826 4.9463389 58.26254611 7.4375 61.625 C7.87288086 62.1924292 8.30826172 62.7598584 8.75683594 63.34448242 C11.22481863 66.563951 13.57194644 69.83047177 15.83203125 73.19921875 C20.92547169 80.94612616 20.92547169 80.94612616 28.875 84.9453125 C32.37902205 84.93824794 35.56808955 84.68536673 39 84 C36.42019463 79.312748 33.1453382 75.35494847 29.75 71.25 C28.56708491 69.80650024 27.38478678 68.36249466 26.203125 66.91796875 C25.64173828 66.2326709 25.08035156 65.54737305 24.50195312 64.84130859 C21.5975557 61.28068354 18.79220389 57.6487764 16 54 C14.90896314 52.5832494 13.81780447 51.16659261 12.7265625 49.75 C11.52580925 48.1876786 10.32529099 46.62517657 9.125 45.0625 C8.54041016 44.30332275 7.95582031 43.54414551 7.35351562 42.76196289 C6.80630859 42.0477417 6.25910156 41.33352051 5.6953125 40.59765625 C5.20047363 39.95320557 4.70563477 39.30875488 4.19580078 38.64477539 C3 37 3 37 2 35 C1.34 35 0.68 35 0 35 Z M0 65 C-1.50887646 66.4799316 -1.50887646 66.4799316 -3.0390625 68.4296875 C-3.61914062 69.14253906 -4.19921875 69.85539062 -4.796875 70.58984375 C-5.40015625 71.34394531 -6.0034375 72.09804687 -6.625 72.875 C-7.23601562 73.62136719 -7.84703125 74.36773437 -8.4765625 75.13671875 C-11.75558951 78.6595858 -11.75558951 78.6595858 -13 83 C-10.53483654 84.23258173 -8.8870571 84.12930518 -6.1328125 84.1328125 C-5.16472656 84.13410156 -4.19664062 84.13539062 -3.19921875 84.13671875 C-2.18472656 84.13285156 -1.17023438 84.12898438 -0.125 84.125 C0.88175781 84.12886719 1.88851562 84.13273437 2.92578125 84.13671875 C3.89644531 84.13542969 4.86710937 84.13414063 5.8671875 84.1328125 C6.75519043 84.13168457 7.64319336 84.13055664 8.55810547 84.12939453 C10.8454021 84.00819205 12.80804029 83.64184456 15 83 C13.01557657 78.79403525 10.36282291 75.38955781 7.5 71.75 C7.00113281 71.1003125 6.50226563 70.450625 5.98828125 69.78125 C4.70815807 68.14763436 3.35894401 66.56865759 2 65 C1.34 65 0.68 65 0 65 Z M-54 104 C-55.485 106.475 -55.485 106.475 -57 109 C-18.72 109 19.56 109 59 109 C55.17154592 103.25731888 51.63319091 98.00955656 47 93 C46.46656982 92.22826195 46.46656982 92.22826195 45.92236328 91.44093323 C42.87635401 89.15775605 39.51590817 89.48960403 35.84765625 89.43725586 C35.01632675 89.41432968 34.18499725 89.3914035 33.32847595 89.36778259 C30.57319064 89.29837666 27.81837895 89.25364856 25.0625 89.21484375 C23.64747192 89.19275943 23.64747192 89.19275943 22.20385742 89.17022896 C17.20513351 89.09589999 12.20664238 89.04286583 7.20751953 89.00463867 C2.06205733 88.96039906 -3.0782576 88.83659901 -8.22181702 88.69472408 C-12.19238604 88.60086164 -16.1617542 88.56975836 -20.1333313 88.55490303 C-22.02814486 88.53668687 -23.92289432 88.49482009 -25.81661987 88.42808342 C-40.52555998 87.94028256 -46.7379241 91.13856091 -54 104 Z " fill="#F24B5C" transform="translate(192,42)"/>
<path d="M0 0 C3.21571894 1.37587328 4.93199968 2.82410036 7.03125 5.60546875 C7.5886084 6.33443359 8.1459668 7.06339844 8.72021484 7.81445312 C9.30754395 8.59755859 9.89487305 9.38066406 10.5 10.1875 C11.75168455 11.82752518 13.00430437 13.46683695 14.2578125 15.10546875 C14.88461914 15.92837402 15.51142578 16.7512793 16.15722656 17.59912109 C18.84827109 21.10517991 21.60621707 24.55523856 24.375 28 C24.86395752 28.61391602 25.35291504 29.22783203 25.85668945 29.86035156 C28.02341297 32.57547748 30.21255829 35.24525956 32.48828125 37.87109375 C36.8681435 42.98222963 39 46.17356512 39 53 C38.62875 52.54625 38.2575 52.0925 37.875 51.625 C36.04941068 49.78543561 36.04941068 49.78543561 33.26171875 49.375 C28.66306742 47.43640686 26.77094859 44.3696475 23.9375 40.375 C22.80714211 38.83543438 21.67425721 37.29772143 20.5390625 35.76171875 C19.9605957 34.97458496 19.38212891 34.18745117 18.78613281 33.37646484 C15.38846285 28.85583616 11.75866186 24.52221306 8.13842773 20.17919922 C7.36801147 19.24551514 7.36801147 19.24551514 6.58203125 18.29296875 C5.90491089 17.48122192 5.90491089 17.48122192 5.21411133 16.65307617 C3.89374356 14.85532629 2.94303789 13.01757947 2 11 C1.34 11 0.68 11 0 11 C-1.87052671 13.31835639 -3.63288986 15.65000824 -5.375 18.0625 C-9.4725411 23.63833074 -13.64137065 29.12567684 -18 34.5 C-22.0963087 39.56387242 -26.05891135 44.70513045 -29.9375 49.9375 C-35.11987208 56.92221345 -40.5487368 63.67764541 -46.0625 70.40234375 C-49.45401797 74.54064789 -52.7520716 78.74816646 -56 83 C-52.57104524 83.4269252 -49.41370549 83.60451035 -46 83 C-43.44266598 81.00707759 -41.71645338 78.73516149 -40 76 C-40 79.61029169 -40.96092582 82.55806676 -42 86 C-42.66 86 -43.32 86 -44 86 C-44.33 86.99 -44.66 87.98 -45 89 C-47.31 88.34 -49.62 87.68 -52 87 C-52 87.99 -52 88.98 -52 90 C-57.94 90.33 -63.88 90.66 -70 91 C-69.06209374 87.24837495 -68.62341598 86.21013424 -66.26171875 83.453125 C-65.69509521 82.78144287 -65.12847168 82.10976074 -64.54467773 81.41772461 C-63.62537476 80.34470093 -63.62537476 80.34470093 -62.6875 79.25 C-57.93104968 73.5955338 -53.32075804 67.88626011 -48.9375 61.9375 C-44.42118064 55.82147851 -39.71629598 49.8999648 -34.87939453 44.03491211 C-30.30951287 38.46291181 -25.99399068 32.72125237 -21.78125 26.875 C-20.56669485 25.21544254 -19.28911053 23.60233243 -18 22 C-17.34 22 -16.68 22 -16 22 C-15.72671875 21.41355713 -15.4534375 20.82711426 -15.171875 20.22290039 C-14.03080769 18.05843834 -12.79268526 16.32644161 -11.25 14.43359375 C-10.7240625 13.78326172 -10.198125 13.13292969 -9.65625 12.46289062 C-9.1096875 11.79451172 -8.563125 11.12613281 -8 10.4375 C-6.91559607 9.10373431 -5.83222225 7.76913028 -4.75 6.43359375 C-4.27046875 5.84634521 -3.7909375 5.25909668 -3.296875 4.65405273 C-2.12383084 3.1579356 -1.05457233 1.58185849 0 0 Z " fill="#F8485C" transform="translate(192,42)"/>
<path d="M0 0 C2.30541992 -0.21655273 2.30541992 -0.21655273 5 0 C6.66918945 1.45288086 6.66918945 1.45288086 8.11328125 3.46484375 C8.9012207 4.54088867 8.9012207 4.54088867 9.70507812 5.63867188 C10.50075195 6.7765918 10.50075195 6.7765918 11.3125 7.9375 C11.86228516 8.69224609 12.41207031 9.44699219 12.97851562 10.22460938 C17 15.79473991 17 15.79473991 17 17 C-29.86 17 -76.72 17 -125 17 C-121.38205287 11.57307931 -118.20216302 6.82012817 -114 2 C-112.68 2.33 -111.36 2.66 -110 3 C-110 3.99 -110 4.98 -110 6 C-110.66 6 -111.32 6 -112 6 C-112 7.65 -112 9.3 -112 11 C-111.01 10.67 -110.02 10.34 -109 10 C-107.46449376 9.91080504 -105.92537701 9.87802309 -104.38728333 9.87974548 C-103.44077408 9.87837082 -102.49426483 9.87699615 -101.51907349 9.87557983 C-100.4825766 9.87917511 -99.44607971 9.88277039 -98.37817383 9.88647461 C-97.28533585 9.88632858 -96.19249786 9.88618256 -95.06654358 9.8860321 C-91.44668609 9.88672995 -87.82687977 9.89451642 -84.20703125 9.90234375 C-81.70025155 9.90420838 -79.19347148 9.90563207 -76.68669128 9.90663147 C-70.75814995 9.91006226 -64.82962509 9.91794743 -58.90109223 9.92798096 C-51.48940331 9.94025246 -44.07771211 9.94562534 -36.66601562 9.95117188 C-23.44400105 9.96190291 -10.22200169 9.97878337 3 10 C2.505 9.0925 2.01 8.185 1.5 7.25 C0 4 0 4 0 0 Z " fill="#E7775B" transform="translate(247,140)"/>
<path d="M0 0 C0.99 0 1.98 0 3 0 C4.5859375 1.84375 4.5859375 1.84375 6.375 4.5 C8.92555444 8.17776576 11.53175262 11.69176469 14.4140625 15.1171875 C15.00525879 15.82166016 15.59645508 16.52613281 16.20556641 17.25195312 C17.38869872 18.65175158 18.58092806 20.04391853 19.78271484 21.42773438 C23.91849939 26.35308888 23.91849939 26.35308888 24.375 29.9765625 C24.189375 30.97816406 24.189375 30.97816406 24 32 C22.02 32.495 22.02 32.495 20 33 C20 32.34 20 31.68 20 31 C19.24372314 30.74927734 18.48744629 30.49855469 17.70825195 30.24023438 C14.74405142 28.88278925 13.6070723 27.73328397 11.66796875 25.15625 C11.09755859 24.40472656 10.52714844 23.65320313 9.93945312 22.87890625 C9.36130859 22.09386719 8.78316406 21.30882813 8.1875 20.5 C7.59001953 19.71496094 6.99253906 18.92992188 6.37695312 18.12109375 C2 12.28849107 2 12.28849107 2 10 C1.34 10 0.68 10 0 10 C-0.24105469 10.71671875 -0.48210937 11.4334375 -0.73046875 12.171875 C-2.18558758 15.41343202 -3.9762712 17.57346946 -6.3125 20.25 C-10.5105544 25.14410889 -14.48346845 30.17169838 -18.375 35.3125 C-24.44627784 43.32089945 -30.68491935 51.18295422 -37 59 C-38.60031344 55.79937313 -37.03173691 53.27728194 -36 50 C-36.99 49.67 -37.98 49.34 -39 49 C-38.26136719 48.07960937 -37.52273437 47.15921875 -36.76171875 46.2109375 C-29.29279839 36.89495822 -21.89246065 27.52783908 -14.53271484 18.12548828 C-13.06419174 16.24976408 -11.59460548 14.37487621 -10.125 12.5 C-9.68470459 11.93659912 -9.24440918 11.37319824 -8.79077148 10.79272461 C-7.94934641 9.71944729 -7.10416841 8.64909935 -6.25488281 7.58203125 C-5.38384121 6.48390876 -4.52457803 5.37638091 -3.67480469 4.26171875 C-2.51752073 2.78551187 -1.26447373 1.38549597 0 0 Z " fill="#EC1888" transform="translate(192,67)"/>
<path d="M0 0 C3.99494292 3.84807002 7.52262478 7.93225024 11 12.25 C11.55671387 12.93731201 12.11342773 13.62462402 12.68701172 14.33276367 C17.4962425 20.30286649 22.16381833 26.37770706 26.7734375 32.50292969 C27.28390625 33.1787207 27.794375 33.85451172 28.3203125 34.55078125 C28.76648926 35.14544189 29.21266602 35.74010254 29.67236328 36.3527832 C30.97659341 38.05526828 30.97659341 38.05526828 32.66748047 39.52807617 C34 41 34 41 34 44 C28.06 43.67 22.12 43.34 16 43 C16 42.67 16 42.34 16 42 C18.31 42 20.62 42 23 42 C22.01 41.34 21.02 40.68 20 40 C20.495 39.01 20.495 39.01 21 38 C20.20335937 38.02320313 19.40671875 38.04640625 18.5859375 38.0703125 C12.94379895 38.16640732 8.29778709 38.17345111 3 36 C2.01 36 1.02 36 0 36 C-1.82082934 33.9792127 -3.44109395 31.98516707 -5.0625 29.8125 C-5.53985596 29.18843262 -6.01721191 28.56436523 -6.5090332 27.92138672 C-7.50824645 26.61377432 -8.50353641 25.30315572 -9.49511719 23.98974609 C-11.42729696 21.43503079 -13.3852556 18.90071609 -15.34350586 16.3659668 C-17.23527384 13.91543139 -19.11779734 11.4578872 -21 9 C-19.68 8.67 -18.36 8.34 -17 8 C-17.33 8.99 -17.66 9.98 -18 11 C-16.01508358 10.73323796 -16.01508358 10.73323796 -14 10 C-13.67 9.01 -13.34 8.02 -13 7 C-11.49055205 8.81043426 -9.98366727 10.62292421 -8.47949219 12.43774414 C-7.19554271 13.98643052 -5.90839886 15.53247383 -4.61816406 17.07592773 C-1.72838725 20.56029537 1.09122105 24.01731067 3.58203125 27.80078125 C4.29746094 28.87714844 5.01289063 29.95351562 5.75 31.0625 C6.63945312 32.50302734 6.63945312 32.50302734 7.546875 33.97265625 C11.34828737 37.11426934 15.25780268 36.40389342 20 36 C19.6282666 35.55309814 19.2565332 35.10619629 18.87353516 34.64575195 C-3.39095141 7.84260348 -3.39095141 7.84260348 -6 2 C-5.195625 2.185625 -4.39125 2.37125 -3.5625 2.5625 C-2.2940625 2.7790625 -2.2940625 2.7790625 -1 3 C-0.67 2.67 -0.34 2.34 0 2 C0 1.34 0 0.68 0 0 Z " fill="#E9445E" transform="translate(230,89)"/>
<path d="M0 0 C1.43352212 0.00015908 2.86704998 0.00585132 4.30053711 0.01586914 C5.43041298 0.01799156 5.43041298 0.01799156 6.58311462 0.02015686 C8.99807646 0.02577163 11.41294687 0.03832656 13.82788086 0.05102539 C15.46134307 0.05603849 17.09480672 0.06060173 18.72827148 0.06469727 C22.74067671 0.07574585 26.75301326 0.09302033 30.76538086 0.11352539 C30.76538086 1.76352539 30.76538086 3.41352539 30.76538086 5.11352539 C21.52538086 5.11352539 12.28538086 5.11352539 2.76538086 5.11352539 C2.76538086 7.09352539 2.76538086 9.07352539 2.76538086 11.11352539 C11.34538086 11.11352539 19.92538086 11.11352539 28.76538086 11.11352539 C28.76538086 12.76352539 28.76538086 14.41352539 28.76538086 16.11352539 C20.18538086 16.11352539 11.60538086 16.11352539 2.76538086 16.11352539 C2.76538086 18.75352539 2.76538086 21.39352539 2.76538086 24.11352539 C12.00538086 24.11352539 21.24538086 24.11352539 30.76538086 24.11352539 C30.76538086 25.76352539 30.76538086 27.41352539 30.76538086 29.11352539 C25.94157284 29.13817729 21.11780119 29.15636232 16.29394531 29.16845703 C14.65168621 29.17349713 13.00943163 29.18032917 11.3671875 29.18896484 C9.01162607 29.20104465 6.65612377 29.20675678 4.30053711 29.21118164 C3.5619899 29.21634293 2.82344269 29.22150421 2.06251526 29.2268219 C0.29639998 29.22701789 -1.4695906 29.17547258 -3.23461914 29.11352539 C-5.03741105 27.31073348 -4.36498519 24.57304838 -4.36743164 22.14477539 C-4.3687207 20.9343457 -4.37000977 19.72391602 -4.37133789 18.47680664 C-4.3674707 17.20192383 -4.36360352 15.92704102 -4.35961914 14.61352539 C-4.36348633 13.33864258 -4.36735352 12.06375977 -4.37133789 10.75024414 C-4.37004883 9.53981445 -4.36875977 8.32938477 -4.36743164 7.08227539 C-4.36630371 5.96272461 -4.36517578 4.84317383 -4.36401367 3.68969727 C-4.17139991 -0.14513375 -3.92915294 0.13790144 0 0 Z " fill="#FBFAFD" transform="translate(331.234619140625,176.886474609375)"/>
<path d="M0 0 C4.30215124 -0.6555659 6.64246316 0.15088566 10.1015625 2.5625 C11.61951348 3.69486805 13.12693495 4.84145192 14.625 6 C16.21746331 7.19312552 17.81121782 8.38452961 19.40625 9.57421875 C20.57220703 10.45086182 20.57220703 10.45086182 21.76171875 11.34521484 C26.37658304 14.75703314 31.18697494 17.87625236 36 21 C35.99476318 20.39937744 35.98952637 19.79875488 35.98413086 19.17993164 C35.96341986 16.47413162 35.95035875 13.76834823 35.9375 11.0625 C35.92912109 10.11697266 35.92074219 9.17144531 35.91210938 8.19726562 C35.90888672 7.29814453 35.90566406 6.39902344 35.90234375 5.47265625 C35.89710693 4.64000244 35.89187012 3.80734863 35.88647461 2.94946289 C36 1 36 1 37 0 C39.5 -0.125 39.5 -0.125 42 0 C43.80279191 1.80279191 43.13036605 4.54047701 43.1328125 6.96875 C43.13474609 8.78439453 43.13474609 8.78439453 43.13671875 10.63671875 C43.13285156 11.91160156 43.12898438 13.18648437 43.125 14.5 C43.13080078 16.41232422 43.13080078 16.41232422 43.13671875 18.36328125 C43.13542969 19.57371094 43.13414062 20.78414062 43.1328125 22.03125 C43.13168457 23.15080078 43.13055664 24.27035156 43.12939453 25.42382812 C43 28 43 28 42 29 C37.4836272 29.87878386 35.00887139 28.60857686 31.35546875 26.1484375 C29.6225667 24.90477865 27.90016257 23.64638655 26.1875 22.375 C24.47333619 21.13187439 22.7584966 19.88968004 21.04296875 18.6484375 C19.79459229 17.73723145 19.79459229 17.73723145 18.52099609 16.80761719 C14.74695407 14.10153476 10.88058332 11.55043393 7 9 C6.67 15.6 6.34 22.2 6 29 C4.02 29 2.04 29 0 29 C-1.76988265 27.23011735 -1.13029068 24.68034582 -1.1328125 22.28515625 C-1.13410156 21.12435547 -1.13539062 19.96355469 -1.13671875 18.76757812 C-1.13091797 16.93356445 -1.13091797 16.93356445 -1.125 15.0625 C-1.13080078 13.23428711 -1.13080078 13.23428711 -1.13671875 11.36914062 C-1.13542969 10.20705078 -1.13414063 9.04496094 -1.1328125 7.84765625 C-1.13168457 6.77523682 -1.13055664 5.70281738 -1.12939453 4.59790039 C-1 2 -1 2 0 0 Z " fill="#FCFBFD" transform="translate(87,177)"/>
<path d="M0 0 C4.33170606 -0.25653082 6.67739978 -0.05287984 10.13671875 2.59765625 C11.24297607 3.42487183 11.24297607 3.42487183 12.37158203 4.26879883 C13.13583496 4.86072021 13.90008789 5.4526416 14.6875 6.0625 C16.28079598 7.25755323 17.87584551 8.45027221 19.47265625 9.640625 C20.24367676 10.21876953 21.01469727 10.79691406 21.80908203 11.39257812 C26.05120998 14.50492161 30.50097653 17.27482058 35 20 C35.03758423 19.14450562 35.03758423 19.14450562 35.07592773 18.27172852 C35.19156549 15.70173843 35.31443624 13.13214473 35.4375 10.5625 C35.47681641 9.66466797 35.51613281 8.76683594 35.55664062 7.84179688 C35.61948242 6.56079102 35.61948242 6.56079102 35.68359375 5.25390625 C35.72025146 4.46314697 35.75690918 3.6723877 35.79467773 2.85766602 C36 1 36 1 37 0 C39.5 -0.125 39.5 -0.125 42 0 C43.80279191 1.80279191 43.13036605 4.54047701 43.1328125 6.96875 C43.13474609 8.78439453 43.13474609 8.78439453 43.13671875 10.63671875 C43.13285156 11.91160156 43.12898438 13.18648437 43.125 14.5 C43.13080078 16.41232422 43.13080078 16.41232422 43.13671875 18.36328125 C43.13542969 19.57371094 43.13414062 20.78414062 43.1328125 22.03125 C43.13168457 23.15080078 43.13055664 24.27035156 43.12939453 25.42382812 C43 28 43 28 42 29 C37.4836272 29.87878386 35.00887139 28.60857686 31.35546875 26.1484375 C29.6225667 24.90477865 27.90016257 23.64638655 26.1875 22.375 C24.47333619 21.13187439 22.7584966 19.88968004 21.04296875 18.6484375 C19.79459229 17.73723145 19.79459229 17.73723145 18.52099609 16.80761719 C14.74695407 14.10153476 10.88058332 11.55043393 7 9 C6.67 15.6 6.34 22.2 6 29 C4.02 29 2.04 29 0 29 C-1.101173 25.69648101 -1.03109831 23.48612828 -0.87890625 20.01953125 C-0.83056641 18.85615234 -0.78222656 17.69277344 -0.73242188 16.49414062 C-0.67634766 15.27919922 -0.62027344 14.06425781 -0.5625 12.8125 C-0.51029297 11.58595703 -0.45808594 10.35941406 -0.40429688 9.09570312 C-0.27451599 6.06354982 -0.13954569 3.03171706 0 0 Z " fill="#FCFBFD" transform="translate(140,177)"/>
<path d="M0 0 C3.21571894 1.37587328 4.93199968 2.82410036 7.03125 5.60546875 C7.5886084 6.33443359 8.1459668 7.06339844 8.72021484 7.81445312 C9.6012085 8.98911133 9.6012085 8.98911133 10.5 10.1875 C11.75168455 11.82752518 13.00430437 13.46683695 14.2578125 15.10546875 C15.19802246 16.33982666 15.19802246 16.33982666 16.15722656 17.59912109 C18.84827109 21.10517991 21.60621707 24.55523856 24.375 28 C24.86395752 28.61391602 25.35291504 29.22783203 25.85668945 29.86035156 C28.02341297 32.57547748 30.21255829 35.24525956 32.48828125 37.87109375 C36.8681435 42.98222963 39 46.17356512 39 53 C38.62875 52.54625 38.2575 52.0925 37.875 51.625 C36.04941068 49.78543561 36.04941068 49.78543561 33.26171875 49.375 C28.66306742 47.43640686 26.77094859 44.3696475 23.9375 40.375 C22.80714211 38.83543438 21.67425721 37.29772143 20.5390625 35.76171875 C19.6713623 34.58101807 19.6713623 34.58101807 18.78613281 33.37646484 C15.38846285 28.85583616 11.75866186 24.52221306 8.13842773 20.17919922 C7.36801147 19.24551514 7.36801147 19.24551514 6.58203125 18.29296875 C6.13061768 17.7518042 5.6792041 17.21063965 5.21411133 16.65307617 C3.89374356 14.85532629 2.94303789 13.01757947 2 11 C1.34 11 0.68 11 0 11 C-2.12795516 13.70796417 -4.13574011 16.46587348 -6.10351562 19.29101562 C-8.16844354 22.11818622 -9.43500222 23.81791911 -12.82421875 24.91015625 C-13.54222656 24.93980469 -14.26023438 24.96945313 -15 25 C-15 26.32 -15 27.64 -15 29 C-15.66 29 -16.32 29 -17 29 C-17 29.66 -17 30.32 -17 31 C-18.32 31 -19.64 31 -21 31 C-21.25532751 27.93606987 -21.21861333 26.36766788 -19.625 23.6875 C-19.08875 23.130625 -18.5525 22.57375 -18 22 C-17.34 22 -16.68 22 -16 22 C-15.72671875 21.41355713 -15.4534375 20.82711426 -15.171875 20.22290039 C-14.03080769 18.05843834 -12.79268526 16.32644161 -11.25 14.43359375 C-10.7240625 13.78326172 -10.198125 13.13292969 -9.65625 12.46289062 C-9.1096875 11.79451172 -8.563125 11.12613281 -8 10.4375 C-6.91559607 9.10373431 -5.83222225 7.76913028 -4.75 6.43359375 C-4.03070313 5.55272095 -4.03070313 5.55272095 -3.296875 4.65405273 C-2.12383084 3.1579356 -1.05457233 1.58185849 0 0 Z " fill="#DF1BA9" transform="translate(192,42)"/>
<path d="M0 0 C6.93 -0.0928125 6.93 -0.0928125 14 -0.1875 C16.16175781 -0.22846802 16.16175781 -0.22846802 18.3671875 -0.27026367 C25.27787675 -0.31499461 30.79461331 -0.174849 37 3 C39.5493632 5.85837692 40 7.24177077 40 11.0625 C38.7329067 14.78458658 37.32607114 15.9590018 34 18 C30.44853472 18.9147883 27.13852358 19.11809231 23.48046875 19.09765625 C22.45888672 19.09443359 21.43730469 19.09121094 20.38476562 19.08789062 C19.32966797 19.07951172 18.27457031 19.07113281 17.1875 19.0625 C16.11306641 19.05798828 15.03863281 19.05347656 13.93164062 19.04882812 C11.28773643 19.03707744 8.643861 19.019143 6 19 C6 22.3 6 25.6 6 29 C4.02 29 2.04 29 0 29 C0 19.43 0 9.86 0 0 Z M6 5 C6 7.97 6 10.94 6 14 C9.74993479 14.05811773 13.49975352 14.09363593 17.25 14.125 C18.31347656 14.14175781 19.37695312 14.15851563 20.47265625 14.17578125 C21.49746094 14.18222656 22.52226563 14.18867188 23.578125 14.1953125 C24.99206543 14.21102295 24.99206543 14.21102295 26.43457031 14.22705078 C29.09951941 13.99119213 30.71863092 13.35661659 33 12 C33 10.35 33 8.7 33 7 C29.74246076 5.06290362 27.34390072 4.76284555 23.578125 4.8046875 C22.55332031 4.81113281 21.52851562 4.81757813 20.47265625 4.82421875 C18.87744141 4.84935547 18.87744141 4.84935547 17.25 4.875 C16.17105469 4.88402344 15.09210937 4.89304688 13.98046875 4.90234375 C11.32008722 4.92588695 8.66015664 4.95877201 6 5 Z " fill="#FCFBFD" transform="translate(24,177)"/>
<path d="M0 0 C0.69673828 0.00386719 1.39347656 0.00773438 2.11132812 0.01171875 C7.38494388 0.10002115 12.0693031 0.80551517 17.125 2.25 C17.125 3.9 17.125 5.55 17.125 7.25 C16.17625 7.105625 15.2275 6.96125 14.25 6.8125 C13.60675781 6.72484375 12.96351563 6.6371875 12.30078125 6.546875 C10.81670177 6.34437942 9.33486693 6.12488426 7.85546875 5.890625 C0.0620033 4.83303033 -7.41203227 5.76234409 -14.875 8.25 C-15.63911467 11.98567172 -15.94674763 14.59811918 -14.875 18.25 C-5.77756921 21.48806859 2.61732119 21.572092 12.125 21.25 C11.63 19.27 11.63 19.27 11.125 17.25 C7.165 16.92 3.205 16.59 -0.875 16.25 C-0.875 14.93 -0.875 13.61 -0.875 12.25 C5.395 12.25 11.665 12.25 18.125 12.25 C18.125 16.21 18.125 20.17 18.125 24.25 C12.38395955 26.20522544 7.2305265 26.58516702 1.1875 26.5625 C0.33220703 26.57861328 -0.52308594 26.59472656 -1.40429688 26.61132812 C-7.50803633 26.61598391 -13.60128767 26.07087778 -18.43701172 21.90405273 C-21.12043063 18.92104729 -22.77161899 16.28185935 -22.875 12.25 C-21.96131117 8.18916074 -19.92094141 6.0615606 -16.80078125 3.36328125 C-11.55860998 0.33281713 -5.92454802 -0.07998425 0 0 Z " fill="#FCFBFD" transform="translate(222.875,212.75)"/>
<path d="M0 0 C3.13280301 2.06919705 4.51334103 3.75818659 5.8984375 7.25390625 C6.2130795 10.49185847 5.97148977 13.17668757 4.8984375 16.25390625 C0.25296441 21.33151637 -4.75450885 23.25374603 -11.52734375 23.58984375 C-29.20102722 23.91676827 -29.20102722 23.91676827 -35.1015625 19.25390625 C-37.83143056 16.19112745 -38.9301308 14.28249643 -39.6015625 10.25390625 C-38.92268131 6.1806191 -37.90556261 4.32495399 -35.1015625 1.25390625 C-25.63405995 -5.07077586 -10.05237987 -4.92326454 0 0 Z M-31.3515625 5.50390625 C-33.38118515 8.15004641 -33.38118515 8.15004641 -33.1015625 11.37890625 C-31.90282423 14.96849816 -31.90282423 14.96849816 -29.1015625 17.25390625 C-20.24290698 20.15587961 -11.63684864 20.41871455 -3.1015625 16.25390625 C-0.59122626 14.19123719 -0.15844673 13.63584324 0.3359375 10.31640625 C-0.20891856 6.50241385 -1.1363336 5.64283651 -4.1015625 3.25390625 C-13.08778617 0.41874652 -23.40749685 0.00416849 -31.3515625 5.50390625 Z " fill="#FCFBFD" transform="translate(147.1015625,215.74609375)"/>
<path d="M0 0 C3.8319074 0.75270725 4.67622743 1.87471022 6.94189453 5.0065918 C7.62638672 5.93149414 8.31087891 6.85639648 9.01611328 7.80932617 C9.71091797 8.78836914 10.40572266 9.76741211 11.12158203 10.77612305 C12.51993071 12.68634432 13.91836552 14.59650255 15.31689453 16.5065918 C16.23365967 17.78699341 16.23365967 17.78699341 17.16894531 19.09326172 C18.45651311 20.85124067 19.81736064 22.55668173 21.2265625 24.21875 C22.99658203 26.58862305 22.99658203 26.58862305 22.99658203 29.58862305 C20.30908203 29.96362305 20.30908203 29.96362305 16.99658203 29.58862305 C16.36751953 28.60893555 15.73845703 27.62924805 15.09033203 26.61987305 C13.21892171 24.23178537 12.26813882 23.64676718 9.25317383 23.0012207 C5.88621546 22.77356797 2.55865195 22.70606099 -0.81591797 22.71362305 C-1.98574219 22.69299805 -3.15556641 22.67237305 -4.36083984 22.65112305 C-7.24241106 22.60407699 -10.12154161 22.58417718 -13.00341797 22.58862305 C-13.43654297 23.48581055 -13.43654297 23.48581055 -13.87841797 24.40112305 C-15.00341797 26.58862305 -15.00341797 26.58862305 -17.00341797 29.58862305 C-20.12841797 29.77612305 -20.12841797 29.77612305 -23.00341797 29.58862305 C-23.00341797 25.80196584 -21.93961716 24.84036439 -19.64404297 21.87768555 C-18.94021484 20.96245117 -18.23638672 20.0472168 -17.51123047 19.10424805 C-16.76615234 18.1503418 -16.02107422 17.19643555 -15.25341797 16.21362305 C-14.52380859 15.26745117 -13.79419922 14.3212793 -13.04248047 13.34643555 C-11.03897649 10.75280858 -9.02797442 8.16584536 -7.00341797 5.58862305 C-6.38692383 4.66098145 -5.77042969 3.73333984 -5.13525391 2.77758789 C-3.00341797 0.58862305 -3.00341797 0.58862305 0 0 Z M-1.00341797 6.58862305 C-2.0366161 7.84942425 -3.05466176 9.12265563 -4.06591797 10.40112305 C-4.63439453 11.10881836 -5.20287109 11.81651367 -5.78857422 12.5456543 C-6.18947266 13.21983398 -6.59037109 13.89401367 -7.00341797 14.58862305 C-6.67341797 15.57862305 -6.34341797 16.56862305 -6.00341797 17.58862305 C-1.38341797 17.58862305 3.23658203 17.58862305 7.99658203 17.58862305 C7.06845703 16.14487305 6.14033203 14.70112305 5.18408203 13.21362305 C4.66201172 12.40151367 4.13994141 11.5894043 3.60205078 10.75268555 C2.01221006 8.35512064 2.01221006 8.35512064 -1.00341797 6.58862305 Z " fill="#FBFBFD" transform="translate(211.00341796875,176.411376953125)"/>
<path d="M0 0 C1.29647461 -0.01836914 1.29647461 -0.01836914 2.61914062 -0.03710938 C8.15418331 -0.04964155 12.87442612 0.62628317 18.1875 2.1875 C18.1875 4.1675 18.1875 6.1475 18.1875 8.1875 C17.13433594 7.94773438 16.08117187 7.70796875 14.99609375 7.4609375 C5.26478596 5.3993352 -4.10762505 4.03222046 -13.8125 7.1875 C-16.77647115 9.4159267 -16.77647115 9.4159267 -18.8125 12.1875 C-18.87692198 15.9239751 -18.72656383 18.12718596 -16.25 21 C-6.0803494 25.95444516 4.30498585 24.79619625 14.8515625 21.74609375 C15.62242187 21.56175781 16.39328125 21.37742188 17.1875 21.1875 C18.1875 22.1875 18.1875 22.1875 18.25 24.75 C18.229375 25.554375 18.20875 26.35875 18.1875 27.1875 C6.26431752 30.48500516 -7.60153402 32.54132275 -19.0390625 26.40625 C-22.6995214 23.89069234 -25.29213926 21.58287962 -26.28515625 17.01171875 C-26.57034282 12.66079543 -26.05288832 10.56929321 -23.6875 6.8125 C-16.50764352 0.25697887 -9.23621204 0.00679633 0 0 Z " fill="#FBFBFD" transform="translate(261.8125,176.8125)"/>
<path d="M0 0 C0.73347656 0.00515625 1.46695312 0.0103125 2.22265625 0.015625 C6.4082945 0.0755268 10.37943503 0.44153472 14.5 1.25 C14.5 2.9 14.5 4.55 14.5 6.25 C13.51 6.16621094 12.52 6.08242187 11.5 5.99609375 C1.47096492 5.18382121 1.47096492 5.18382121 -8.5 6.25 C-8.83 6.58 -9.16 6.91 -9.5 7.25 C-7.92412109 7.63091797 -7.92412109 7.63091797 -6.31640625 8.01953125 C14.30279714 13.05279714 14.30279714 13.05279714 17.5 16.25 C17.5 19.6875 17.5 19.6875 16.5 23.25 C11.17230759 27.0919168 5.65696907 26.63207819 -0.625 26.5 C-1.61371094 26.49484375 -2.60242188 26.4896875 -3.62109375 26.484375 C-11.52042756 26.39886124 -11.52042756 26.39886124 -15.5 25.25 C-15.83 23.93 -16.16 22.61 -16.5 21.25 C-12.18836892 20.07410062 -8.88628631 20.602843 -4.5 21.25 C0.58130144 21.46470288 5.55015161 21.56995957 10.5 20.25 C10.5 19.59 10.5 18.93 10.5 18.25 C9.60539062 18.06824219 8.71078125 17.88648438 7.7890625 17.69921875 C2.1036545 16.51728425 -3.57942756 15.32460249 -9.1875 13.8125 C-9.95449219 13.60753906 -10.72148437 13.40257812 -11.51171875 13.19140625 C-14.0511961 11.9890211 -15.09417345 10.65998837 -16.5 8.25 C-16.0625 5.6875 -16.0625 5.6875 -14.5 3.25 C-9.57107121 0.1065888 -5.64111458 -0.15862537 0 0 Z " fill="#FCFBFD" transform="translate(344.5,212.75)"/>
<path d="M0 0 C1.67542976 0.28604898 3.34385343 0.61781233 5 1 C5 3.97 5 6.94 5 10 C13.91 10 22.82 10 32 10 C32 7.03 32 4.06 32 1 C33.65614657 0.61781233 35.32457024 0.28604898 37 0 C38 1 38 1 38.11352539 3.40844727 C38.10828857 4.45057373 38.10305176 5.4927002 38.09765625 6.56640625 C38.09443359 7.69111328 38.09121094 8.81582031 38.08789062 9.97460938 C38.07532227 11.75061523 38.07532227 11.75061523 38.0625 13.5625 C38.05798828 14.75037109 38.05347656 15.93824219 38.04882812 17.16210938 C38.03699675 20.10812226 38.02051287 23.05403681 38 26 C36.33388095 26.042721 34.66617115 26.04063832 33 26 C32.67 25.67 32.34 25.34 32 25 C32 21.7 32 18.4 32 15 C23.09 15 14.18 15 5 15 C5 18.63 5 22.26 5 26 C3.35 26 1.7 26 0 26 C-1.71567792 24.28432208 -1.13015825 22.02627265 -1.1328125 19.6875 C-1.13410156 18.61242187 -1.13539062 17.53734375 -1.13671875 16.4296875 C-1.13091797 14.73199219 -1.13091797 14.73199219 -1.125 13 C-1.12886719 11.86820313 -1.13273437 10.73640625 -1.13671875 9.5703125 C-1.13542969 8.49523437 -1.13414063 7.42015625 -1.1328125 6.3125 C-1.13168457 5.31863281 -1.13055664 4.32476562 -1.12939453 3.30078125 C-1 1 -1 1 0 0 Z " fill="#FCFBFD" transform="translate(64,213)"/>
<path d="M0 0 C1.67542976 0.28604898 3.34385343 0.61781233 5 1 C5 3.97 5 6.94 5 10 C13.91 10 22.82 10 32 10 C31.505 6.04 31.505 6.04 31 2 C31.33 1.34 31.66 0.68 32 0 C33.65 0 35.3 0 37 0 C38.04616643 3.1384993 38.04169366 5.05038303 37.87890625 8.32421875 C37.83056641 9.35224609 37.78222656 10.38027344 37.73242188 11.43945312 C37.67634766 12.51130859 37.62027344 13.58316406 37.5625 14.6875 C37.51029297 15.77095703 37.45808594 16.85441406 37.40429688 17.97070312 C37.27458784 20.64742591 37.13962067 23.32377888 37 26 C35.35 26 33.7 26 32 26 C32 22.37 32 18.74 32 15 C23.09 15 14.18 15 5 15 C5 18.3 5 21.6 5 25 C4 26 4 26 1.4375 26.0625 C0.633125 26.041875 -0.17125 26.02125 -1 26 C-1.02886751 21.85418113 -1.04675327 17.70838784 -1.0625 13.5625 C-1.07087891 12.37849609 -1.07925781 11.19449219 -1.08789062 9.97460938 C-1.09111328 8.84990234 -1.09433594 7.72519531 -1.09765625 6.56640625 C-1.10289307 5.52427979 -1.10812988 4.48215332 -1.11352539 3.40844727 C-1 1 -1 1 0 0 Z " fill="#FCFBFD" transform="translate(249,213)"/>
<path d="M0 0 C1.65 0.33 3.3 0.66 5 1 C5.33 6.94 5.66 12.88 6 19 C11.59507701 20.75755358 11.59507701 20.75755358 17 21.25 C17.598125 21.25515625 18.19625 21.2603125 18.8125 21.265625 C21.94374207 20.88540275 24.96712028 19.86653706 28 19 C28.33 13.06 28.66 7.12 29 1 C30.65 0.67 32.3 0.34 34 0 C36.24258935 2.24258935 35.27942779 7.30292926 35.3125 10.3125 C35.34150391 11.18068359 35.37050781 12.04886719 35.40039062 12.94335938 C35.46406678 19.32566955 35.46406678 19.32566955 33.29296875 22.48046875 C27.95692926 26.01661758 23.43661168 26.36467942 17.1875 26.375 C16.41857422 26.39949219 15.64964844 26.42398438 14.85742188 26.44921875 C9.17329903 26.47799912 4.71449407 25.26881655 0 22 C-1.16581918 19.66836164 -1.12905609 18.27846518 -1.1328125 15.68359375 C-1.13410156 14.83732422 -1.13539063 13.99105469 -1.13671875 13.11914062 C-1.13285156 12.23419922 -1.12898437 11.34925781 -1.125 10.4375 C-1.12886719 9.54869141 -1.13273438 8.65988281 -1.13671875 7.74414062 C-1.13542969 6.89916016 -1.13414062 6.05417969 -1.1328125 5.18359375 C-1.13168457 4.40556396 -1.13055664 3.62753418 -1.12939453 2.82592773 C-1 1 -1 1 0 0 Z " fill="#FCFCFE" transform="translate(160,213)"/>
<path d="M0 0 C4.16394633 1.5280537 6.2256336 4.54344586 8.75 8 C9.62657075 9.17394943 10.50418918 10.34711724 11.3828125 11.51953125 C11.81883789 12.10428223 12.25486328 12.6890332 12.70410156 13.29150391 C15.23743109 16.63141349 17.92823057 19.84614402 20.6015625 23.07421875 C22 25 22 25 22 27 C21.01 27 20.02 27 19 27 C19 26.34 19 25.68 19 25 C18.34 25 17.68 25 17 25 C16.34 25.99 15.68 26.98 15 28 C7.25579566 19.52557292 7.25579566 19.52557292 4.125 14.9375 C3.42375 13.968125 2.7225 12.99875 2 12 C1.34 12 0.68 12 0 12 C-1.81240747 14.01608167 -1.81240747 14.01608167 -3.625 16.5 C-4.25664062 17.3353125 -4.88828125 18.170625 -5.5390625 19.03125 C-6.02117187 19.6809375 -6.50328125 20.330625 -7 21 C-7.92232422 20.48953125 -7.92232422 20.48953125 -8.86328125 19.96875 C-10.95943232 18.75844492 -10.95943232 18.75844492 -13.1875 19.5 C-15.32113209 20.96020829 -15.32113209 20.96020829 -15.75 24.125 C-15.8325 25.07375 -15.915 26.0225 -16 27 C-17.65 27.33 -19.3 27.66 -21 28 C-19.27936394 23.98518252 -16.58236969 20.75543215 -13.875 17.375 C-13.38797607 16.76124512 -12.90095215 16.14749023 -12.39916992 15.51513672 C-10.93648455 13.67376956 -9.46885582 11.83644692 -8 10 C-7.1652652 8.95320424 -6.33062233 7.90633517 -5.49609375 6.859375 C-3.66778073 4.56989537 -1.83607477 2.28325631 0 0 Z " fill="#E92864" transform="translate(192,96)"/>
<path d="M0 0 C1.65 0 3.3 0 5 0 C6 1 6 1 6.11352539 3.22485352 C6.10828857 4.18319092 6.10305176 5.14152832 6.09765625 6.12890625 C6.09515869 7.06033447 6.09266113 7.9917627 6.09008789 8.95141602 C6.07643188 10.73890259 6.07643188 10.73890259 6.0625 12.5625 C6.041875 16.336875 6.02125 20.11125 6 24 C14.91 24 23.82 24 33 24 C33.495 25.98 33.495 25.98 34 28 C33 29 33 29 29.85717773 29.11352539 C28.46597303 29.11336633 27.07476239 29.10767506 25.68359375 29.09765625 C24.95253922 29.0962413 24.22148468 29.09482635 23.46827698 29.09336853 C21.12464368 29.08775408 18.78110461 29.07519922 16.4375 29.0625 C14.85221492 29.05748686 13.26692834 29.05292363 11.68164062 29.04882812 C7.78769457 29.03862921 3.89395323 29.01905687 0 29 C0 19.43 0 9.86 0 0 Z " fill="#FCFBFD" transform="translate(288,177)"/>
<path d="M0 0 C0.33 0.66 0.66 1.32 1 2 C0.67 2.99 0.34 3.98 0 5 C1.32 5 2.64 5 4 5 C4 4.34 4 3.68 4 3 C4.66 3.33 5.32 3.66 6 4 C-0.4614157 12.43768384 -6.98270784 20.82516881 -13.56054688 29.17236328 C-16.10592762 32.40416794 -18.64638567 35.63984047 -21.1875 38.875 C-22.11846897 40.05991203 -23.04945656 41.24480943 -23.98046875 42.4296875 C-24.64691406 43.27789062 -25.31335938 44.12609375 -26 45 C-27.60031344 41.79937313 -26.03173691 39.27728194 -25 36 C-25.99 35.67 -26.98 35.34 -28 35 C-27.26136719 34.07960937 -26.52273437 33.15921875 -25.76171875 32.2109375 C-20.04981488 25.08599415 -14.35910135 17.94637092 -8.74291992 10.74560547 C-5.89528895 7.10383409 -2.97421852 3.53820271 0 0 Z " fill="#EC2A65" transform="translate(181,81)"/>
<path d="M0 0 C11.22 0 22.44 0 34 0 C34.495 2.475 34.495 2.475 35 5 C30.05 5 25.1 5 20 5 C20 11.93 20 18.86 20 26 C18.35 26 16.7 26 15 26 C13.45049732 24.45049732 13.78344807 22.90009406 13.68359375 20.74609375 C13.64169922 19.89208984 13.59980469 19.03808594 13.55664062 18.15820312 C13.49766602 16.81145508 13.49766602 16.81145508 13.4375 15.4375 C13.39431641 14.53580078 13.35113281 13.63410156 13.30664062 12.70507812 C13.20022016 10.47024844 13.09957519 8.23514514 13 6 C6.07 5.505 6.07 5.505 -1 5 C-0.67 3.35 -0.34 1.7 0 0 Z " fill="#FCFBFE" transform="translate(291,213)"/>
<path d="M0 0 C11.55 0 23.1 0 35 0 C35.495 1.98 35.495 1.98 36 4 C35 5 35 5 31.83984375 5.09765625 C29.90818359 5.08025391 29.90818359 5.08025391 27.9375 5.0625 C26.64714844 5.05347656 25.35679688 5.04445312 24.02734375 5.03515625 C23.02832031 5.02355469 22.02929688 5.01195312 21 5 C21.00785522 5.90093384 21.00785522 5.90093384 21.01586914 6.82006836 C21.03658014 9.52586838 21.04964125 12.23165177 21.0625 14.9375 C21.07087891 15.88302734 21.07925781 16.82855469 21.08789062 17.80273438 C21.09272461 19.15141602 21.09272461 19.15141602 21.09765625 20.52734375 C21.10551147 21.77632446 21.10551147 21.77632446 21.11352539 23.05053711 C21 25 21 25 20 26 C18.35 26 16.7 26 15 26 C15 19.07 15 12.14 15 5 C10.05 5 5.1 5 0 5 C0 3.35 0 1.7 0 0 Z " fill="#FBFAFD" transform="translate(24,213)"/>
<path d="M0 0 C4.07453806 3.9163767 7.6489044 8.09753185 11.1875 12.5 C11.75122314 13.19907471 12.31494629 13.89814941 12.89575195 14.6184082 C14.60243141 16.74145672 16.30248525 18.86961899 18 21 C18.50917969 21.63728027 19.01835937 22.27456055 19.54296875 22.93115234 C20.9326087 24.67705052 22.31222409 26.43027444 23.6875 28.1875 C24.47511719 29.19167969 25.26273438 30.19585937 26.07421875 31.23046875 C30.27926206 37.27788397 30.27926206 37.27788397 29.625 41.3125 C29.41875 41.869375 29.2125 42.42625 29 43 C28.34 42.01 27.68 41.02 27 40 C26.09765625 39.76925781 25.1953125 39.53851563 24.265625 39.30078125 C19.56708422 37.42923331 17.63064718 34.22233261 14.75 30.1875 C13.61619566 28.65081271 12.48207722 27.11435713 11.34765625 25.578125 C10.78836426 24.81048828 10.22907227 24.04285156 9.65283203 23.25195312 C7.21994702 19.93719221 4.70664971 16.68687141 2.1875 13.4375 C1.36813708 12.3739694 0.5490885 11.31019649 -0.26953125 10.24609375 C-0.84058594 9.50488281 -1.41164062 8.76367188 -2 8 C-1.34 7.67 -0.68 7.34 0 7 C0.33 7.66 0.66 8.32 1 9 C3.02463255 9.65213292 3.02463255 9.65213292 5 10 C4.6390625 9.44570313 4.278125 8.89140625 3.90625 8.3203125 C3.4421875 7.59585938 2.978125 6.87140625 2.5 6.125 C2.0359375 5.40570313 1.571875 4.68640625 1.09375 3.9453125 C0 2 0 2 0 0 Z " fill="#DE1CA6" transform="translate(201,52)"/>
<path d="M0 0 C2.475 0.495 2.475 0.495 5 1 C0.94875282 6.4206701 -3.13550656 11.81470578 -7.25 17.1875 C-8.08664185 18.28082642 -8.08664185 18.28082642 -8.94018555 19.39624023 C-13.94909301 25.93931756 -18.97092293 32.4724169 -24 39 C-25.65 38.67 -27.3 38.34 -29 38 C-26.88026821 28.79430766 -21.31714406 22.50496972 -15.29589844 15.52246094 C-12.09725883 11.76460175 -9.06361745 7.86803097 -6 4 C-5.67 4.99 -5.34 5.98 -5 7 C-3.68 7 -2.36 7 -1 7 C-1 6.34 -1 5.68 -1 5 C-0.34 5 0.32 5 1 5 C0.67 3.35 0.34 1.7 0 0 Z " fill="#E71E74" transform="translate(176,66)"/>
<path d="M0 0 C4.20293337 4.05311022 7.97247173 8.37321037 11.6875 12.875 C12.26822266 13.55691406 12.84894531 14.23882812 13.44726562 14.94140625 C16.95985332 19.20524102 18.9010564 22.56909165 20 28 C19 29 19 29 16.765625 29.453125 C12.61872171 28.77368887 11.07564693 25.97631647 8.75 22.75 C8.27908936 22.12335449 7.80817871 21.49670898 7.32299805 20.85107422 C6.35023421 19.55329244 5.38437398 18.25030889 4.42529297 16.94238281 C3.06046178 15.08239704 1.67733467 13.23801074 0.28515625 11.3984375 C-1.82409297 8.60941483 -3.91675309 5.80852546 -6 3 C-4.125 2.375 -4.125 2.375 -2 2 C-1.34 2.66 -0.68 3.32 0 4 C0 2.68 0 1.36 0 0 Z " fill="#E83665" transform="translate(230,89)"/>
<path d="M0 0 C4.3344683 4.13856013 8.06714281 8.64019822 11.8125 13.3125 C12.7087207 14.42334961 12.7087207 14.42334961 13.62304688 15.55664062 C15.0846418 17.36901834 16.54354027 19.183495 18 21 C17.67 21.66 17.34 22.32 17 23 C16.01 23 15.02 23 14 23 C14.33 24.98 14.66 26.96 15 29 C11.1704192 25.31584632 7.82240747 21.44270024 4.5625 17.25 C4.08385498 16.63817871 3.60520996 16.02635742 3.11206055 15.39599609 C-0.49345712 10.74714589 -3.8734932 5.98658047 -7 1 C-5.68 1.33 -4.36 1.66 -3 2 C-3.33 2.66 -3.66 3.32 -4 4 C-2.68 3.67 -1.36 3.34 0 3 C0 2.01 0 1.02 0 0 Z " fill="#D73363" transform="translate(216,96)"/>
<path d="M0 0 C1.98 0 3.96 0 6 0 C6 9.57 6 19.14 6 29 C4.02 29 2.04 29 0 29 C0 19.43 0 9.86 0 0 Z " fill="#FCFBFE" transform="translate(70,177)"/>
<path d="M0 0 C0.33 0.66 0.66 1.32 1 2 C0.06553465 4.03144641 -0.93224776 6.03533587 -2 8 C-0.68 8 0.64 8 2 8 C0.47121078 12.74729284 -2.15689252 16.05342973 -5.3125 19.8125 C-6.0230957 20.7087207 -6.0230957 20.7087207 -6.74804688 21.62304688 C-10.32872906 25.90908916 -10.32872906 25.90908916 -13.85546875 26.38671875 C-14.91701172 26.19529297 -14.91701172 26.19529297 -16 26 C-15.61832922 20.12814177 -14.15830061 17.34769535 -10.25 13 C-6.56594363 8.81327402 -3.14313365 4.60992936 0 0 Z " fill="#E63D69" transform="translate(149,96)"/>
<path d="M0 0 C2.19117105 3.28675658 2.09652576 4.23549534 2 8 C2.33 8.66 2.66 9.32 3 10 C2.34 10.66 1.68 11.32 1 12 C-0.32 11.34 -1.64 10.68 -3 10 C-3.28875 10.78375 -3.5775 11.5675 -3.875 12.375 C-5 15 -5 15 -7 17 C-7.99 17 -8.98 17 -10 17 C-10 17.66 -10 18.32 -10 19 C-11.32 19 -12.64 19 -14 19 C-13.63308473 13.18072388 -11.9100932 9.83547349 -8.125 5.5625 C-7.45404297 4.75135742 -7.45404297 4.75135742 -6.76953125 3.92382812 C-3.40625 0 -3.40625 0 0 0 Z " fill="#F1119A" transform="translate(195,67)"/>
<path d="M0 0 C6.07886766 3.28386382 11.69018303 8.6594895 13.734375 15.43359375 C14 17.625 14 17.625 14 21 C13.62875 20.54625 13.2575 20.0925 12.875 19.625 C11.03452722 17.78635572 11.03452722 17.78635572 8.1875 17.2734375 C4.09417963 15.63811588 2.66735026 13.56100238 0.125 10 C-0.2771875 9.4534375 -0.679375 8.906875 -1.09375 8.34375 C-4 4.31058673 -4 4.31058673 -4 2 C-2.68 2 -1.36 2 0 2 C0 1.34 0 0.68 0 0 Z " fill="#D4237F" transform="translate(217,74)"/>
<path d="M0 0 C3.3404486 0.27837072 4.72025133 0.72025133 7.125 3.125 C9.20280497 6.31096762 10.61027264 9.46251218 12 13 C12.391875 13.969375 12.78375 14.93875 13.1875 15.9375 C13.455625 16.618125 13.72375 17.29875 14 18 C12.35 17.67 10.7 17.34 9 17 C9 16.34 9 15.68 9 15 C8.401875 14.938125 7.80375 14.87625 7.1875 14.8125 C4.14245324 13.68148263 3.55509485 11.75675905 2 9 C1.34 9 0.68 9 0 9 C-0.66 9.66 -1.32 10.32 -2 11 C-3.35384615 4.6 -3.35384615 4.6 -1.5625 1.5625 C-1.046875 1.046875 -0.53125 0.53125 0 0 Z " fill="#DC18B9" transform="translate(192,44)"/>
<path d="M0 0 C1.3125 2.75 1.3125 2.75 2 5 C0.68 4.67 -0.64 4.34 -2 4 C-1.505 6.97 -1.505 6.97 -1 10 C-4.59476701 6.50794062 -7.92026191 2.95966325 -11 -1 C-11 -1.66 -11 -2.32 -11 -3 C-19.25 -3 -27.5 -3 -36 -3 C-31.60184991 -5.93210006 -27.37269906 -5.54218982 -22.1875 -5.75 C-21.20201172 -5.80542969 -20.21652344 -5.86085937 -19.20117188 -5.91796875 C-11.46128259 -6.26103973 -5.78478652 -5.624098 0 0 Z " fill="#E9545A" transform="translate(249,136)"/>
<path d="M0 0 C2.16796875 -0.40625 2.16796875 -0.40625 5 0 C7.01975125 2.14653855 8.63759782 4.11295423 10.3125 6.5 C10.76689453 7.12003906 11.22128906 7.74007812 11.68945312 8.37890625 C12.80744812 9.90879414 13.90568532 11.45308527 15 13 C14.67 13.66 14.34 14.32 14 15 C10.37 15 6.74 15 3 15 C3 14.01 3 13.02 3 12 C3.66 11.67 4.32 11.34 5 11 C4.34 9.35 3.68 7.7 3 6 C2.34 6 1.68 6 1 6 C0.67 4.02 0.34 2.04 0 0 Z " fill="#F27158" transform="translate(247,140)"/>
<path d="M0 0 C1.65 0.33 3.3 0.66 5 1 C3.02139609 3.68310682 1.0124475 6.34221069 -1 9 C-1.67289063 9.91007812 -2.34578125 10.82015625 -3.0390625 11.7578125 C-3.72742188 12.66273437 -4.41578125 13.56765625 -5.125 14.5 C-5.76695312 15.3559375 -6.40890625 16.211875 -7.0703125 17.09375 C-9 19 -9 19 -13 19 C-13.57256004 15.07387404 -13.74950876 13.08011914 -11.44140625 9.75390625 C-9.68344524 7.76956797 -7.89115082 5.85738027 -6 4 C-5.67 4.99 -5.34 5.98 -5 7 C-3.68 7 -2.36 7 -1 7 C-1 6.34 -1 5.68 -1 5 C-0.34 5 0.32 5 1 5 C0.67 3.35 0.34 1.7 0 0 Z " fill="#E61C8C" transform="translate(176,66)"/>
<path d="M0 0 C0.33 0.99 0.66 1.98 1 3 C-0.70022272 5.32927545 -2.3985485 7.42254684 -4.3125 9.5625 C-4.82490234 10.15224609 -5.33730469 10.74199219 -5.86523438 11.34960938 C-7.85347335 13.6281779 -9.86130911 15.86130911 -12 18 C-12 16.68 -12 15.36 -12 14 C-11.34 14 -10.68 14 -10 14 C-10 13.01 -10 12.02 -10 11 C-10.99 10.67 -11.98 10.34 -13 10 C-10.10110452 3.47748517 -7.27589855 -0.19147101 0 0 Z " fill="#F2595A" transform="translate(147,132)"/>
<path d="M0 0 C0.33 0.66 0.66 1.32 1 2 C0.67 2.99 0.34 3.98 0 5 C1.32 5 2.64 5 4 5 C4 4.34 4 3.68 4 3 C4.66 3.33 5.32 3.66 6 4 C4.37965717 6.14949538 2.75404206 8.2946141 1.125 10.4375 C0.66480469 11.04916016 0.20460937 11.66082031 -0.26953125 12.29101562 C-3.7734375 16.88671875 -3.7734375 16.88671875 -6 18 C-5.67 15.69 -5.34 13.38 -5 11 C-8.06551356 12.66238996 -8.06551356 12.66238996 -8.9375 15.0625 C-10 17 -10 17 -12.06640625 17.62109375 C-12.70449219 17.74613281 -13.34257812 17.87117188 -14 18 C-9.48432691 11.87647362 -4.77926562 5.9194965 0 0 Z " fill="#E0227B" transform="translate(181,81)"/>
<path d="M0 0 C7.7 7.7 7.7 7.7 9 12 C8.625 14.8125 8.625 14.8125 8 17 C7.67 16.34 7.34 15.68 7 15 C6.34 15 5.68 15 5 15 C5 14.34 5 13.68 5 13 C4.41734375 12.92910156 3.8346875 12.85820313 3.234375 12.78515625 C0.18017746 11.71191551 -0.85453711 10.02553587 -2.75 7.4375 C-3.36359375 6.61121094 -3.9771875 5.78492187 -4.609375 4.93359375 C-5.06828125 4.29550781 -5.5271875 3.65742187 -6 3 C-4.125 2.375 -4.125 2.375 -2 2 C-1.34 2.66 -0.68 3.32 0 4 C0 2.68 0 1.36 0 0 Z " fill="#D8216B" transform="translate(230,89)"/>
<path d="M0 0 C0 3.10551666 -0.5393715 4.35261084 -2 7 C-1.01 6.34 -0.02 5.68 1 5 C1.99 5 2.98 5 4 5 C3.67 4.01 3.34 3.02 3 2 C4.32 2.33 5.64 2.66 7 3 C4.69 5.97 2.38 8.94 0 12 C-1.32 11.34 -2.64 10.68 -4 10 C-6.28164024 10.34893166 -6.28164024 10.34893166 -8 12 C-8.81584568 15.05908413 -8.81584568 15.05908413 -9 18 C-10.65 18.33 -12.3 18.66 -14 19 C-12.71606032 16.2682214 -11.30918785 13.94430645 -9.43359375 11.58203125 C-8.94826172 10.96779297 -8.46292969 10.35355469 -7.96289062 9.72070312 C-7.45951172 9.09099609 -6.95613281 8.46128906 -6.4375 7.8125 C-5.67663086 6.85053711 -5.67663086 6.85053711 -4.90039062 5.86914062 C-1.18849649 1.18849649 -1.18849649 1.18849649 0 0 Z " fill="#DE3866" transform="translate(185,105)"/>
<path d="M0 0 C0.33 0.66 0.66 1.32 1 2 C0.06553465 4.03144641 -0.93224776 6.03533587 -2 8 C-0.68 8 0.64 8 2 8 C0.76067171 11.43198603 -0.50301511 14.30325632 -3 17 C-3.99 17 -4.98 17 -6 17 C-8 14 -8 14 -7.84765625 11.61328125 C-6.85663154 8.5580023 -5.47057886 6.6641597 -3.4375 4.1875 C-2.47650391 3.00220703 -2.47650391 3.00220703 -1.49609375 1.79296875 C-1.00238281 1.20128906 -0.50867188 0.60960938 0 0 Z " fill="#DE2F68" transform="translate(149,96)"/>
<path d="M0 0 C0.99 0.99 1.98 1.98 3 3 C3.66 2.01 4.32 1.02 5 0 C5.99 0.33 6.98 0.66 8 1 C4.63737574 6.24569384 0.86435321 11.11528387 -3 16 C-4.60031344 12.79937313 -3.03173691 10.27728194 -2 7 C-2.99 6.67 -3.98 6.34 -5 6 C-3.35 4.02 -1.7 2.04 0 0 Z " fill="#E63E67" transform="translate(158,110)"/>
<path d="M0 0 C3.22143505 0.26119744 4.77987279 0.82151848 7.3125 2.875 C9 5 9 5 9 8 C3.06 7.67 -2.88 7.34 -9 7 C-9 6.67 -9 6.34 -9 6 C-6.69 6 -4.38 6 -2 6 C-1.855625 5.195625 -1.71125 4.39125 -1.5625 3.5625 C-1 1 -1 1 0 0 Z " fill="#F44858" transform="translate(255,125)"/>
<path d="M0 0 C2.81872737 0.38878998 3.77195598 0.70810365 5.5625 3 C6.036875 3.66 6.51125 4.32 7 5 C7.99 5.33 8.98 5.66 10 6 C10 7.65 10 9.3 10 11 C8.68 11.33 7.36 11.66 6 12 C6 11.34 6 10.68 6 10 C5.195625 9.71125 4.39125 9.4225 3.5625 9.125 C1 8 1 8 0 6 C0.33 5.01 0.66 4.02 1 3 C0.34 3 -0.32 3 -1 3 C-0.67 2.01 -0.34 1.02 0 0 Z " fill="#F0196F" transform="translate(206,88)"/>
<path d="M0 0 C0.66 0 1.32 0 2 0 C2 0.66 2 1.32 2 2 C3.65 2 5.3 2 7 2 C7 3.65 7 5.3 7 7 C8.32 7.33 9.64 7.66 11 8 C10.2265625 6.824375 10.2265625 6.824375 9.4375 5.625 C8.963125 4.75875 8.48875 3.8925 8 3 C8.33 2.34 8.66 1.68 9 1 C11.31 3.64 13.62 6.28 16 9 C15 11 15 11 11.9375 12.125 C10.968125 12.41375 9.99875 12.7025 9 13 C7.49710267 11.02297434 5.99758658 9.0435417 4.5 7.0625 C4.07074219 6.49853516 3.64148438 5.93457031 3.19921875 5.35351562 C0 1.11328125 0 1.11328125 0 0 Z " fill="#DB2198" transform="translate(203,64)"/>
<path d="M0 0 C4.21814817 3.9700218 7.61227103 8.30840284 11 13 C7.83884224 11.63016497 7.0072908 11.0109362 5 8 C4.01 8 3.02 8 2 8 C1.67 8.66 1.34 9.32 1 10 C1.66 10 2.32 10 3 10 C2.67 10.99 2.34 11.98 2 13 C-0.64 9.7 -3.28 6.4 -6 3 C-3 3 -3 3 0 5 C0 3.35 0 1.7 0 0 Z " fill="#D72178" transform="translate(204,81)"/>
<path d="M0 0 C2.64 0 5.28 0 8 0 C6.05279851 3.50496269 4.17349303 6.49967216 1 9 C-1.25 8.75 -1.25 8.75 -3 8 C-2.37240135 5.07120629 -1.41377341 2.63904371 0 0 Z " fill="#EB216A" transform="translate(150,96)"/>
<path d="M0 0 C2.96404505 2.80804268 5.44499019 5.18315774 7 9 C6.01 9 5.02 9 4 9 C4 8.34 4 7.68 4 7 C3.34 7 2.68 7 2 7 C1.01 8.485 1.01 8.485 0 10 C-2.31 7.36 -4.62 4.72 -7 2 C-6.01 2 -5.02 2 -4 2 C-4 2.66 -4 3.32 -4 4 C-2.68 3.67 -1.36 3.34 0 3 C0 2.01 0 1.02 0 0 Z " fill="#E14062" transform="translate(207,114)"/>
<path d="M0 0 C1.65 0.33 3.3 0.66 5 1 C5.103125 1.78375 5.20625 2.5675 5.3125 3.375 C5.77595022 6.33045181 5.77595022 6.33045181 9 8 C8.67 8.99 8.34 9.98 8 11 C4.57893924 10.74658809 3.69217816 9.69217816 1.1875 7.1875 C-1 4 -1 4 -0.8125 1.625 C-0.544375 1.08875 -0.27625 0.5525 0 0 Z " fill="#F52263" transform="translate(216,100)"/>
<path d="M0 0 C1.32 0 2.64 0 4 0 C4 0.99 4 1.98 4 3 C3.01 3 2.02 3 1 3 C1.33 3.99 1.66 4.98 2 6 C1.67 6.99 1.34 7.98 1 9 C0.01 9 -0.98 9 -2 9 C-2 9.66 -2 10.32 -2 11 C-3.32 11 -4.64 11 -6 11 C-5.55376936 5.9427194 -3.49357358 3.49357358 0 0 Z " fill="#F4128C" transform="translate(187,75)"/>
<path d="M0 0 C4.875 4.75 4.875 4.75 6 7 C5.01 7 4.02 7 3 7 C3.33 8.65 3.66 10.3 4 12 C4.66 12 5.32 12 6 12 C6 13.65 6 15.3 6 17 C1.78185183 13.0299782 -1.61227103 8.69159716 -5 4 C-4.01 4 -3.02 4 -2 4 C-2 4.66 -2 5.32 -2 6 C-1.01 6.33 -0.02 6.66 1 7 C0.67 4.69 0.34 2.38 0 0 Z " fill="#D93065" transform="translate(237,98)"/>
<path d="M0 0 C0.99 0.33 1.98 0.66 3 1 C2.01 1.33 1.02 1.66 0 2 C-2.11572323 4.78384636 -1.98492106 6.31163152 -1.8125 9.875 C-1.69060359 13.30093065 -2.28408252 14.88062415 -4.5 17.5 C-5.7375 18.7375 -5.7375 18.7375 -7 20 C-7 16.88772805 -6.54372951 14.05847848 -6 11 C-6.99 11.495 -6.99 11.495 -8 12 C-6.59023295 8.96147295 -4.91129772 6.4060405 -2.875 3.75 C-2.06675781 2.69039062 -2.06675781 2.69039062 -1.2421875 1.609375 C-0.83226562 1.07828125 -0.42234375 0.5471875 0 0 Z " fill="#D71FB3" transform="translate(192,42)"/>
<path d="M0 0 C3.91939465 3.80411834 7.49102731 7.81576108 11 12 C10.67 12.66 10.34 13.32 10 14 C9.01 13.67 8.02 13.34 7 13 C6.3125 10.9375 6.3125 10.9375 6 9 C4.68 8.67 3.36 8.34 2 8 C2 8.66 2 9.32 2 10 C-1.875 8.25 -1.875 8.25 -3 6 C-1.68 5.67 -0.36 5.34 1 5 C0.67 3.35 0.34 1.7 0 0 Z " fill="#DD4465" transform="translate(248,112)"/>
<path d="M0 0 C0.66 0 1.32 0 2 0 C2.33 0.99 2.66 1.98 3 3 C1.29977728 5.32927545 -0.3985485 7.42254684 -2.3125 9.5625 C-3.08110352 10.44711914 -3.08110352 10.44711914 -3.86523438 11.34960938 C-5.85347335 13.6281779 -7.86130911 15.86130911 -10 18 C-10 16.68 -10 15.36 -10 14 C-9.34 14 -8.68 14 -8 14 C-7.896875 13.236875 -7.79375 12.47375 -7.6875 11.6875 C-6.94348803 8.77908957 -6.20194413 7.92670112 -4 6 C-3.67 5.34 -3.34 4.68 -3 4 C-2.01 4 -1.02 4 0 4 C0 2.68 0 1.36 0 0 Z " fill="#E66364" transform="translate(145,132)"/>
<path d="M0 0 C2 1 2 1 2.875 3.375 C4.14545634 6.33939814 5.41446964 7.19012875 8 9 C8 9.66 8 10.32 8 11 C6.35 11 4.7 11 3 11 C2.87625 10.071875 2.87625 10.071875 2.75 9.125 C2.18741541 6.81562433 2.18741541 6.81562433 -0.0625 5.75 C-0.701875 5.5025 -1.34125 5.255 -2 5 C-2 4.34 -2 3.68 -2 3 C-2.66 2.67 -3.32 2.34 -4 2 C-2.68 2 -1.36 2 0 2 C0 1.34 0 0.68 0 0 Z " fill="#F1138C" transform="translate(217,74)"/>
<path d="M0 0 C0.99 0.33 1.98 0.66 3 1 C3 1.99 3 2.98 3 4 C1.35 4 -0.3 4 -2 4 C-2.33 5.65 -2.66 7.3 -3 9 C-3.66 9 -4.32 9 -5 9 C-4.51386623 3.53099511 -4.51386623 3.53099511 -2.125 1.0625 C-1.42375 0.711875 -0.7225 0.36125 0 0 Z M-8 8 C-7.01 8.33 -6.02 8.66 -5 9 C-5 9.99 -5 10.98 -5 12 C-6.98 12.99 -6.98 12.99 -9 14 C-9.042721 12.33388095 -9.04063832 10.66617115 -9 9 C-8.67 8.67 -8.34 8.34 -8 8 Z " fill="#F83A5F" transform="translate(181,114)"/>
<path d="M0 0 C0.66 0 1.32 0 2 0 C2.75 1.6875 2.75 1.6875 3 4 C1.25 6.75 1.25 6.75 -1 9 C-1.99 9 -2.98 9 -4 9 C-4.33 9.66 -4.66 10.32 -5 11 C-5.99 10.01 -6.98 9.02 -8 8 C-5 6 -5 6 -3 5 C-2.505 4.154375 -2.01 3.30875 -1.5 2.4375 C-1.005 1.633125 -0.51 0.82875 0 0 Z " fill="#F51869" transform="translate(174,92)"/>
<path d="M0 0 C0.33 0 0.66 0 1 0 C1 1.65 1 3.3 1 5 C2.32 5.33 3.64 5.66 5 6 C3.68 6.99 2.36 7.98 1 9 C1 8.34 1 7.68 1 7 C-0.32 6.67 -1.64 6.34 -3 6 C-3.12375 6.804375 -3.2475 7.60875 -3.375 8.4375 C-3.58125 9.283125 -3.7875 10.12875 -4 11 C-4.99 11.495 -4.99 11.495 -6 12 C-6.33 11.01 -6.66 10.02 -7 9 C-5.6015625 6.73828125 -5.6015625 6.73828125 -3.625 4.3125 C-2.97789062 3.50425781 -2.33078125 2.69601563 -1.6640625 1.86328125 C-1.11492187 1.24839844 -0.56578125 0.63351563 0 0 Z " fill="#E02480" transform="translate(162,80)"/>
<path d="M0 0 C0.66 0.33 1.32 0.66 2 1 C0.23867546 5.00301032 -2.26132483 8.6028977 -5 12 C-5.33 12 -5.66 12 -6 12 C-6 9.69 -6 7.38 -6 5 C-6.66 5 -7.32 5 -8 5 C-8 5.66 -8 6.32 -8 7 C-8.66 7 -9.32 7 -10 7 C-8.25 3.125 -8.25 3.125 -6 2 C-6 2.66 -6 3.32 -6 4 C-4.02 3.67 -2.04 3.34 0 3 C0 2.01 0 1.02 0 0 Z " fill="#DF2968" transform="translate(173,98)"/>
<path d="M0 0 C1.65 0.33 3.3 0.66 5 1 C5.33 2.98 5.66 4.96 6 7 C3.03 7 0.06 7 -3 7 C-2 3 -2 3 0 0 Z " fill="#F009D3" transform="translate(192,44)"/>
<path d="M0 0 C1.7074998 1.28062485 3.37373596 2.61767557 5 4 C5 4.66 5 5.32 5 6 C4.34 6 3.68 6 3 6 C2.566875 7.2065625 2.566875 7.2065625 2.125 8.4375 C1 11 1 11 -1 12 C-1 10.35 -1 8.7 -1 7 C-0.01 7 0.98 7 2 7 C2 6.01 2 5.02 2 4 C-2.24822374 4.47202486 -4.19989709 6.96655518 -7 10 C-5.33248852 6.05860922 -2.77289351 3.2107188 0 0 Z " fill="#DD2392" transform="translate(189,71)"/>
<path d="M0 0 C1.32 0.66 2.64 1.32 4 2 C3.67 3.65 3.34 5.3 3 7 C2.34 7 1.68 7 1 7 C1 7.66 1 8.32 1 9 C-0.32 9 -1.64 9 -3 9 C-3.26218749 5.85375007 -3.24754367 4.38162983 -1.5 1.6875 C-1.005 1.130625 -0.51 0.57375 0 0 Z " fill="#EB15A4" transform="translate(174,64)"/>
<path d="M0 0 C-1.32 0.33 -2.64 0.66 -4 1 C-4.0825 2.093125 -4.165 3.18625 -4.25 4.3125 C-5 8 -5 8 -7.0625 9.9375 C-7.701875 10.288125 -8.34125 10.63875 -9 11 C-9.97791242 8.35963647 -10.03638105 7.12733368 -9.25 4.375 C-6.99910578 0.09830098 -4.48683322 -0.24253153 0 0 Z " fill="#F73A5B" transform="translate(160,116)"/>
<path d="M0 0 C2.3125 0.1875 2.3125 0.1875 5 1 C8 5.03448276 8 5.03448276 8 8 C6.35 7.67 4.7 7.34 3 7 C3 6.34 3 5.68 3 5 C2.34 5 1.68 5 1 5 C0.67 3.35 0.34 1.7 0 0 Z " fill="#F20BBD" transform="translate(198,54)"/>
<path d="M0 0 C0 3.61029169 -0.96092582 6.55806676 -2 10 C-8.93 9.505 -8.93 9.505 -16 9 C-16 8.67 -16 8.34 -16 8 C-15.02160156 8.01353516 -15.02160156 8.01353516 -14.0234375 8.02734375 C-8.61646587 7.90012443 -8.61646587 7.90012443 -4 5.375 C-2.54457134 3.63968121 -1.2234738 1.90483929 0 0 Z " fill="#E24D65" transform="translate(152,118)"/>
<path d="M0 0 C2.875 0.3125 2.875 0.3125 6 1 C8 4 8 4 7.625 6.6875 C7.41875 7.450625 7.2125 8.21375 7 9 C6.67 8.34 6.34 7.68 6 7 C5.34 7 4.68 7 4 7 C4 6.34 4 5.68 4 5 C3.01 5 2.02 5 1 5 C0.67 3.35 0.34 1.7 0 0 Z " fill="#F41C66" transform="translate(231,97)"/>
<path d="M0 0 C0.66 0.66 1.32 1.32 2 2 C1.2884375 2.61875 1.2884375 2.61875 0.5625 3.25 C-1.16266518 5.182185 -1.56584875 6.48192275 -2 9 C-3.32 9 -4.64 9 -6 9 C-5.69381595 5.32579134 -5.24228216 4.21864487 -2.4375 1.6875 C-1.633125 1.130625 -0.82875 0.57375 0 0 Z " fill="#F73660" transform="translate(139,113)"/>
<path d="M0 0 C1.65 1.65 3.3 3.3 5 5 C4.67 5.66 4.34 6.32 4 7 C3.01 7 2.02 7 1 7 C1.33 8.98 1.66 10.96 2 13 C0.35 11.35 -1.3 9.7 -3 8 C-2.01 7.34 -1.02 6.68 0 6 C0.2502157 2.91634129 0.2502157 2.91634129 0 0 Z " fill="#D94162" transform="translate(229,112)"/>
<path d="M0 0 C0.33 0.66 0.66 1.32 1 2 C0.01 3.32 -0.98 4.64 -2 6 C2.95 6.33 7.9 6.66 13 7 C13 7.33 13 7.66 13 8 C7.06 8.33 1.12 8.66 -5 9 C-3.96846241 4.87384964 -2.71595986 3.1540179 0 0 Z " fill="#DB5A6F" transform="translate(127,124)"/>
<path d="M0 0 C1.32 0 2.64 0 4 0 C4.66 2.97 5.32 5.94 6 9 C5.01 9.33 4.02 9.66 3 10 C2.690625 9.360625 2.38125 8.72125 2.0625 8.0625 C1.1654837 6.06389179 1.1654837 6.06389179 0 5 C-0.04063832 3.33382885 -0.042721 1.66611905 0 0 Z " fill="#F22860" transform="translate(240,105)"/>
<path d="M0 0 C0.99 0.33 1.98 0.66 3 1 C3.33 2.98 3.66 4.96 4 7 C2.35 7.33 0.7 7.66 -1 8 C-0.67 6.35 -0.34 4.7 0 3 C-0.66 3 -1.32 3 -2 3 C-2 2.34 -2 1.68 -2 1 C-1.34 0.67 -0.68 0.34 0 0 Z " fill="#F7305E" transform="translate(226,111)"/>
<path d="M0 0 C1.65 0.33 3.3 0.66 5 1 C4.06558465 2.27310312 3.12732889 3.543388 2.1875 4.8125 C1.66542969 5.52019531 1.14335937 6.22789063 0.60546875 6.95703125 C-0.83128877 8.78531393 -2.31815763 10.39896688 -4 12 C-4 10.35 -4 8.7 -4 7 C-3.01 7 -2.02 7 -1 7 C-1 6.34 -1 5.68 -1 5 C-0.34 5 0.32 5 1 5 C0.67 3.35 0.34 1.7 0 0 Z " fill="#DF2597" transform="translate(176,66)"/>
<path d="M0 0 C4.84455959 1.58549223 4.84455959 1.58549223 7 3 C7.9375 6.1875 7.9375 6.1875 8 9 C7.38125 8.2884375 7.38125 8.2884375 6.75 7.5625 C4.817815 5.83733482 3.51807725 5.43415125 1 5 C0.67 3.35 0.34 1.7 0 0 Z " fill="#F5167A" transform="translate(223,86)"/>
<path d="M0 0 C1.65 0 3.3 0 5 0 C5.33 0.66 5.66 1.32 6 2 C5.0625 4.125 5.0625 4.125 4 6 C3.01 6 2.02 6 1 6 C0.67 4.02 0.34 2.04 0 0 Z " fill="#F95E53" transform="translate(247,140)"/>
<path d="M0 0 C0.99 0.33 1.98 0.66 3 1 C3 1.66 3 2.32 3 3 C4.32 2.67 5.64 2.34 7 2 C7 3.32 7 4.64 7 6 C5.02 6 3.04 6 1 6 C0.67 4.02 0.34 2.04 0 0 Z " fill="#F83E5A" transform="translate(208,120)"/>
<path d="M0 0 C1.98 0 3.96 0 6 0 C6 0.99 6 1.98 6 3 C5.01 2.67 4.02 2.34 3 2 C3.33 3.98 3.66 5.96 4 8 C2.35 6.35 0.7 4.7 -1 3 C-0.67 2.01 -0.34 1.02 0 0 Z " fill="#E86264" transform="translate(244,138)"/>
<path d="M0 0 C0.99 0.66 1.98 1.32 3 2 C3 2.66 3 3.32 3 4 C0.8019253 5.33454536 -0.52613603 6.02787435 -3.125 5.875 C-5.575137 4.73160273 -6.04432617 3.46882406 -7 1 C-5.68 1.33 -4.36 1.66 -3 2 C-3.33 2.66 -3.66 3.32 -4 4 C-2.68 3.67 -1.36 3.34 0 3 C0 2.01 0 1.02 0 0 Z " fill="#DA2267" transform="translate(216,96)"/>
<path d="M0 0 C1.98 0.66 3.96 1.32 6 2 C5.34 3.32 4.68 4.64 4 6 C3.01 6 2.02 6 1 6 C0.34 4.35 -0.32 2.7 -1 1 C-0.67 0.67 -0.34 0.34 0 0 Z " fill="#ED2C61" transform="translate(142,107)"/>
<path d="M0 0 C0.33 0 0.66 0 1 0 C0.25 6.75 0.25 6.75 -2 9 C-2.99 8.67 -3.98 8.34 -5 8 C-4.19185349 6.66402348 -3.37836819 5.331275 -2.5625 4 C-2.11003906 3.2575 -1.65757812 2.515 -1.19140625 1.75 C-0.79824219 1.1725 -0.40507812 0.595 0 0 Z " fill="#F40BC0" transform="translate(186,52)"/>
<path d="M0 0 C0.33 1.32 0.66 2.64 1 4 C0.34 4 -0.32 4 -1 4 C-1.33 5.98 -1.66 7.96 -2 10 C-3.65 10.33 -5.3 10.66 -7 11 C-5.22054913 6.95579349 -2.60470327 3.53921513 0 0 Z " fill="#D5496A" transform="translate(178,113)"/>
<path d="M0 0 C3.7952131 1.49097658 5.61042731 3.75700849 8 7 C7.67 7.66 7.34 8.32 7 9 C5.62437146 7.71034824 4.29233607 6.37310707 3 5 C3 4.34 3 3.68 3 3 C1.35 3.33 -0.3 3.66 -2 4 C-1.34 2.68 -0.68 1.36 0 0 Z " fill="#CD2769" transform="translate(192,96)"/>
<path d="M0 0 C2.96404505 2.80804268 5.44499019 5.18315774 7 9 C5.68 8.34 4.36 7.68 3 7 C3 6.34 3 5.68 3 5 C1.68 4.34 0.36 3.68 -1 3 C-0.67 2.01 -0.34 1.02 0 0 Z " fill="#D6208A" transform="translate(197,72)"/>
<path d="M0 0 C2.5 2.3125 2.5 2.3125 5 5 C5 5.99 5 6.98 5 8 C3.35 7.67 1.7 7.34 0 7 C0 4.69 0 2.38 0 0 Z " fill="#F10FA2" transform="translate(209,64)"/>
<path d="M0 0 C0.33 0.66 0.66 1.32 1 2 C0.67 2.99 0.34 3.98 0 5 C1.32 5 2.64 5 4 5 C3.67 5.99 3.34 6.98 3 8 C2.236875 7.67 1.47375 7.34 0.6875 7 C-1.99069135 5.82563314 -1.99069135 5.82563314 -5 6 C-3.35 4.02 -1.7 2.04 0 0 Z " fill="#E04A6C" transform="translate(133,117)"/>
<path d="M0 0 C1.26467795 2.52935589 0.7249339 3.34190903 0 6 C0 6.99 0 7.98 0 9 C-1.32 9 -2.64 9 -4 9 C-2.25 2.25 -2.25 2.25 0 0 Z " fill="#E515B1" transform="translate(183,54)"/>
<path d="M0 0 C0.33 0.66 0.66 1.32 1 2 C0.14453125 3.91015625 0.14453125 3.91015625 -1.1875 6.0625 C-1.82751953 7.13177734 -1.82751953 7.13177734 -2.48046875 8.22265625 C-4.25241746 10.29524408 -5.34385824 10.63030147 -8 11 C-7.59007812 10.45730469 -7.18015625 9.91460937 -6.7578125 9.35546875 C-6.21898437 8.64003906 -5.68015625 7.92460938 -5.125 7.1875 C-4.59132812 6.47980469 -4.05765625 5.77210937 -3.5078125 5.04296875 C-2.29185219 3.39543703 -1.13583859 1.70375789 0 0 Z " fill="#D42771" transform="translate(175,88)"/>
<path d="M0 0 C2.5 1.8125 2.5 1.8125 5 4 C5 4.99 5 5.98 5 7 C2.03 6.505 2.03 6.505 -1 6 C-0.67 4.02 -0.34 2.04 0 0 Z " fill="#DC5C6D" transform="translate(259,126)"/>
<path d="M0 0 C1.65 0.33 3.3 0.66 5 1 C4.67 2.32 4.34 3.64 4 5 C2.02 4.34 0.04 3.68 -2 3 C-1.34 2.67 -0.68 2.34 0 2 C0 1.34 0 0.68 0 0 Z " fill="#FA3957" transform="translate(250,120)"/>
<path d="M0 0 C2.00720923 0.28674418 4.0085944 0.61866701 6 1 C6 1.99 6 2.98 6 4 C4.68 4.33 3.36 4.66 2 5 C1.01 3.68 0.02 2.36 -1 1 C-0.67 0.67 -0.34 0.34 0 0 Z " fill="#F43362" transform="translate(201,113)"/>
<path d="M0 0 C1.65 0.33 3.3 0.66 5 1 C2.76152748 4.35770877 2.59041601 4.2145965 -1 5 C-1.66 5.66 -2.32 6.32 -3 7 C-2.38722388 4.03824877 -1.74627478 2.61941217 0 0 Z " fill="#E90ECC" transform="translate(192,44)"/>
<path d="M0 0 C0.99 0.66 1.98 1.32 3 2 C3 2.66 3 3.32 3 4 C1.02 4.66 -0.96 5.32 -3 6 C-2.42655063 3.13275314 -2.1385485 2.1385485 0 0 Z " fill="#F72864" transform="translate(186,106)"/>
<path d="M0 0 C0.33 0.66 0.66 1.32 1 2 C2.65 1.67 4.3 1.34 6 1 C6.33 1.99 6.66 2.98 7 4 C4.69 4.33 2.38 4.66 0 5 C-0.5625 3.0625 -0.5625 3.0625 -1 1 C-0.67 0.67 -0.34 0.34 0 0 Z " fill="#F8464D" transform="translate(140,128)"/>
<path d="M0 0 C0.66 1.32 1.32 2.64 2 4 C0.35 5.65 -1.3 7.3 -3 9 C-2.67 6.69 -2.34 4.38 -2 2 C-1.34 2 -0.68 2 0 2 C0 1.34 0 0.68 0 0 Z " fill="#E24A68" transform="translate(181,116)"/>
<path d="M0 0 C0.99 0.33 1.98 0.66 3 1 C3 1.99 3 2.98 3 4 C2.34 4 1.68 4 1 4 C0.67 4.99 0.34 5.98 0 7 C0 6.34 0 5.68 0 5 C-0.66 5 -1.32 5 -2 5 C-1.34 3.35 -0.68 1.7 0 0 Z " fill="#FB6454" transform="translate(134,142)"/>
<path d="M0 0 C4.875 4.75 4.875 4.75 6 7 C4.68 7.33 3.36 7.66 2 8 C1.34 5.36 0.68 2.72 0 0 Z " fill="#D02564" transform="translate(237,98)"/>
<path d="M0 0 C0.99 0 1.98 0 3 0 C3.66 1.32 4.32 2.64 5 4 C2.69 4 0.38 4 -2 4 C-1.34 2.68 -0.68 1.36 0 0 Z " fill="#D02792" transform="translate(192,67)"/>
<path d="M0 0 C4 1 4 1 4 1 Z " fill="#FFFFFF" transform="translate(229,230)"/>
<path d="" fill="#FFFFFF" transform="translate(0,0)"/>
</svg>
