<?xml version="1.0" standalone="no"?>
<!DOCTYPE svg PUBLIC "-//W3C//DTD SVG 20010904//EN"
 "http://www.w3.org/TR/2001/REC-SVG-20010904/DTD/svg10.dtd">
<svg version="1.0" xmlns="http://www.w3.org/2000/svg"
 width="32.000000pt" height="26.000000pt" viewBox="0 0 32.000000 26.000000"
 preserveAspectRatio="xMidYMid meet">
<metadata>
Created by potrace 1.10, written by Peter Selinger 2001-2011
</metadata>
<g transform="translate(0.000000,26.000000) scale(0.100000,-0.100000)"
fill="#000000" stroke="none">
<path d="M29 226 l23 -24 -21 -4 c-20 -3 -14 -13 51 -93 40 -49 76 -89 80 -90
4 0 39 40 78 90 50 64 66 91 55 93 -19 4 -19 11 2 34 16 17 11 18 -137 18
l-153 0 22 -24z m251 3 c0 -21 -33 -29 -120 -29 -88 0 -120 8 -120 30 0 3 54
6 120 5 66 0 120 -2 120 -6z m-41 -102 c-23 -29 -50 -63 -60 -76 l-19 -24 -19
24 c-10 13 -37 47 -60 76 l-41 51 36 0 c29 0 43 -7 62 -30 l25 -29 21 31 c15
22 27 30 44 27 12 -3 25 0 28 5 3 4 10 6 15 2 5 -3 -9 -29 -32 -57z m-62 36
c-16 -16 -18 -16 -34 0 -16 16 -15 17 17 17 32 0 33 -1 17 -17z"/>
<path d="M82 165 c4 -14 72 -104 78 -104 9 0 82 100 77 105 -4 4 -28 -24 -74
-85 -2 -3 -11 5 -19 18 -23 32 -66 78 -62 66z"/>
</g>
</svg>
